# xmcd CD Database Entry
#
# Track frame offsets:
# 150
# 16284
# 28593
# 45725
# 58184
# 71385
# 84474
# 98767
# 111006
# 125311
# 137004
# 153171
# 169937
# 186138
# 202322
# 216952
# 229079
# 242201
# 254676
# 267812
# 280404
# 293099
# 304061
# 316911
# 329454
# 341504
#
# Disc length: 4750 seconds
#
# Revision: 27
# Processed by: cddbd v1.4PL0 Copyright (c) Steve Scherf et al.
# Submitted via: tcd 2.0b
#
DISCID=82128c1a
DTITLE=Los Panchos - Grandes Exitos
DYEAR=1900
DGENRE=
TTITLE0=Suave que me estas
TTITLE1=Quizas, quizas
TTITLE2=De que manera
TTITLE3=Historia de un amor
TTITLE4=Solamente una vez
TTITLE5=Rayito de luna
TTITLE6=Si tu me dices ven
TTITLE7=Reloj
TTITLE8=Que la gente vive
TTITLE9=Tomame o dejame
TTITLE10=Contigo aprendi
TTITLE11=Besame mucho
TTITLE12=Enamorado
TTITLE13=Que bonito
TTITLE14=Maria bonita
TTITLE15=Mexico lindo
TTITLE16=Si tu me dices ven
TTITLE17=La barca
TTITLE18=
TTITLE19=
TTITLE20=
TTITLE21=
TTITLE22=Sabor a mi
TTITLE23=
TTITLE24=
TTITLE25=
EXTD=
EXTT0=
EXTT1=
EXTT2=
EXTT3=
EXTT4=
EXTT5=
EXTT6=
EXTT7=
EXTT8=
EXTT9=
EXTT10=
EXTT11=
EXTT12=
EXTT13=
EXTT14=
EXTT15=
EXTT16=
EXTT17=
EXTT18=
EXTT19=
EXTT20=
EXTT21=
EXTT22=
EXTT23=
EXTT24=
EXTT25=
PLAYORDER=
